<svg width="218" height="144" viewBox="0 0 218 144" fill="none" xmlns="http://www.w3.org/2000/svg">
<path d="M141.782 70.0849H134.948C140.616 62.8292 143.887 53.8382 143.897 43.6783C143.906 35.8831 141.837 28.5645 138.219 22.2348H145.282L164.044 44.2628L141.782 70.0849ZM147.596 103.576C134.702 104.952 107.619 95.5565 107.619 95.5565C107.619 95.5565 113.105 113.26 132.715 118.322C116.577 118.169 98.2791 110.814 98.2791 110.814C102.981 122.242 108.932 125.407 108.932 125.407C105.35 124.678 102.261 123.77 99.5913 122.781C92.7568 120.228 88.5468 117.081 85.0658 114.348C68.4172 102.183 68.0344 78.6624 68.0344 73.5105C68.1985 70.1569 68.9822 61.4266 72.4085 52.2737C79.899 34.2018 88.8567 26.7842 99.728 26.7842C109.096 26.7842 116.677 34.049 116.677 43.3007C116.677 53.8652 109.56 58.7653 109.56 68.2058C109.843 78.1409 120.869 95.4665 147.596 103.585M152.271 95.988C158.085 96.4646 164.892 96.1229 173.658 103.415C182.488 110.76 185.003 123.851 177.094 136.708C177.094 136.708 173.786 125.946 154.23 126.719C134.675 127.493 115.684 129.992 107.583 118.421C107.583 118.421 135.167 127.484 153.793 118.169C121.598 114.833 117.379 102.92 117.379 102.92C117.379 102.92 146.649 113.574 162.942 103.684C162.942 103.684 142.63 99.2068 133.198 92.8771C133.198 92.8771 137.891 94.8192 152.262 95.997M181.012 87.1319H217.973L218 70.1928H211.649L188.393 44.2718L207.739 22.3067H216.761V4.81022H181.012V22.2977H184.921L176.647 31.6304L168.364 22.2977H172.282V4.81022H136.315L136.297 19.1509C128.36 7.60642 114.973 0.0180154 99.7918 3.34303e-05C84.9383 -0.0179486 71.8162 7.21981 63.7971 18.3147V4.81022H0.0273377L0 22.064H7.93705L7.87326 69.9231H0.99327L0.975045 87.1229H39.3481L39.3663 69.9591H29.5794L29.5976 55.043L48.652 55.07V36.5125L29.625 36.4855L29.6432 23.3047H43.9317V30.8841L57.5003 30.9021C50.6203 53.4336 64.0705 69.2038 64.0705 69.2038C64.0705 69.2038 60.79 101.356 82.3867 117.683C88.5377 122.278 97.0033 127.771 110.809 130.055C128.751 133.022 146.712 130.621 159.37 131.008C169.239 131.305 173.385 136.097 175.098 144C181.759 139.702 187.692 129.21 185.787 116.371C183.892 103.531 171.982 93.992 161.894 92.7872C157.848 91.9151 150.877 91.9151 143.313 90.7553C136.042 89.5505 128.177 87.9231 121.726 81.5485C121.726 81.5485 128.852 77.6644 134.383 70.8132L134.365 87.0869V87.1319H172.2V70.1389H166.951L176.656 58.9001L186.261 70.1479H181.039V87.1229L181.012 87.1319Z" fill="white"/>
</svg>
